# xmcd
#
# Track frame offsets: 
#        150
#        22011
#        43647
#        66700
#        87087
#        111432
#        130840
#        153954
#        175177
#        197264
#        222275
#        243919
#        261193
#        283782
#        302895
#
# Disc length: 4301 seconds
#
# Revision: 1
# Processed by: cddbd v1.5.2PL0 Copyright (c) Steve Scherf et al.
# Submitted via: ExactAudioCopyFreeDBPlugin 1.0
#
DISCID=d810cb0f
DTITLE=CDS制作 - TEST-CD-28A【越老越爱听】
DYEAR=2015
DGENRE=Acid
TTITLE0=忘记你我做不到
TTITLE1=好男人
TTITLE2=漂洋过海来看你
TTITLE3=风雨无阻
TTITLE4=挪威的森林
TTITLE5=借我一点爱
TTITLE6=亲爱的小孩
TTITLE7=泡沫
TTITLE8=一路上有你
TTITLE9=无地自容
TTITLE10=一生爱你千百回
TTITLE11=七情六欲
TTITLE12=让我欢喜让我忧
TTITLE13=相见恨晚
TTITLE14=你怎么舍得我难过
EXTD=
EXTT0=
EXTT1=
EXTT2=
EXTT3=
EXTT4=
EXTT5=
EXTT6=
EXTT7=
EXTT8=
EXTT9=
EXTT10=
EXTT11=
EXTT12=
EXTT13=
EXTT14=
PLAYORDER=
